<svg xmlns="http://www.w3.org/2000/svg" width="100%" height="20" viewBox="0 0 1000 20" preserveAspectRatio="xMidYMid meet" role="img" aria-label="divider">
  <defs>
    <linearGradient id="g" x1="0%" y1="0%" x2="100%" y2="0%">
      <stop offset="0%" stop-color="#8A2BE2"/>
      <stop offset="50%" stop-color="#6A1FB5"/>
      <stop offset="100%" stop-color="#4B0082"/>
    </linearGradient>
  </defs>
  <line x1="18" y1="10" x2="982" y2="10" stroke="url(#g)" stroke-width="2" stroke-linecap="round"/>
  <rect x="14" y="6" width="8" height="8" transform="rotate(45 18 10)" fill="url(#g)"/>
  <rect x="50" y="6" width="8" height="8" transform="rotate(45 54 10)" fill="url(#g)"/>
  <rect x="86" y="6" width="8" height="8" transform="rotate(45 90 10)" fill="url(#g)"/>
  <rect x="122" y="6" width="8" height="8" transform="rotate(45 126 10)" fill="url(#g)"/>
  <rect x="158" y="6" width="8" height="8" transform="rotate(45 162 10)" fill="url(#g)"/>
  <rect x="194" y="6" width="8" height="8" transform="rotate(45 198 10)" fill="url(#g)"/>
  <rect x="230" y="6" width="8" height="8" transform="rotate(45 234 10)" fill="url(#g)"/>
  <rect x="266" y="6" width="8" height="8" transform="rotate(45 270 10)" fill="url(#g)"/>
  <rect x="302" y="6" width="8" height="8" transform="rotate(45 306 10)" fill="url(#g)"/>
  <rect x="338" y="6" width="8" height="8" transform="rotate(45 342 10)" fill="url(#g)"/>
  <rect x="374" y="6" width="8" height="8" transform="rotate(45 378 10)" fill="url(#g)"/>
  <rect x="410" y="6" width="8" height="8" transform="rotate(45 414 10)" fill="url(#g)"/>
  <rect x="446" y="6" width="8" height="8" transform="rotate(45 450 10)" fill="url(#g)"/>
  <rect x="482" y="6" width="8" height="8" transform="rotate(45 486 10)" fill="url(#g)"/>
  <rect x="518" y="6" width="8" height="8" transform="rotate(45 522 10)" fill="url(#g)"/>
  <rect x="554" y="6" width="8" height="8" transform="rotate(45 558 10)" fill="url(#g)"/>
  <rect x="590" y="6" width="8" height="8" transform="rotate(45 594 10)" fill="url(#g)"/>
  <rect x="626" y="6" width="8" height="8" transform="rotate(45 630 10)" fill="url(#g)"/>
  <rect x="662" y="6" width="8" height="8" transform="rotate(45 666 10)" fill="url(#g)"/>
  <rect x="698" y="6" width="8" height="8" transform="rotate(45 702 10)" fill="url(#g)"/>
  <rect x="734" y="6" width="8" height="8" transform="rotate(45 738 10)" fill="url(#g)"/>
  <rect x="770" y="6" width="8" height="8" transform="rotate(45 774 10)" fill="url(#g)"/>
  <rect x="806" y="6" width="8" height="8" transform="rotate(45 810 10)" fill="url(#g)"/>
  <rect x="842" y="6" width="8" height="8" transform="rotate(45 846 10)" fill="url(#g)"/>
  <rect x="878" y="6" width="8" height="8" transform="rotate(45 882 10)" fill="url(#g)"/>
  <rect x="914" y="6" width="8" height="8" transform="rotate(45 918 10)" fill="url(#g)"/>
  <rect x="950" y="6" width="8" height="8" transform="rotate(45 954 10)" fill="url(#g)"/>
</svg>